<svg viewBox="0 0 105 63" fill="none" xmlns="http://www.w3.org/2000/svg">
<path d="M22.7635 47.2531C23.6108 46.2212 24.4016 45.1319 25.0229 43.928C25.3054 43.2974 25.6443 42.6667 25.8702 41.9788C26.1526 41.0041 25.9267 39.9722 25.6443 38.9976C25.0794 36.8764 22.82 36.0164 21.069 36.991C19.9958 37.6217 19.2614 38.2523 18.6401 39.3416C18.5271 39.4562 18.4142 39.6282 18.3577 39.8002C18.3012 39.8002 18.3012 39.8002 18.3012 39.8575C18.0188 40.1442 17.7363 40.4882 17.4539 40.7748C17.2845 40.9468 16.3807 41.6348 17.0585 41.1761C16.7761 41.3481 16.4937 41.5774 16.1548 41.7494C16.0418 41.8641 15.8723 41.9788 15.7029 42.0361C15.6464 42.0934 15.4769 42.1507 15.364 42.2081C15.3075 42.2081 15.3075 42.2081 15.3075 42.2081C15.0815 42.2654 14.8556 42.3801 14.6297 42.4374C14.5167 42.4374 14.4037 42.4374 14.2907 42.4947C13.9518 42.4374 13.6129 42.4947 13.274 42.4947C13.1046 42.4947 12.9351 42.4947 12.7656 42.4947C12.4267 42.4374 11.8619 42.2654 11.8054 42.2654C11.7489 42.2654 11.6359 42.2081 11.523 42.2081C11.523 42.1507 11.4665 42.1507 11.4665 42.1507C11.41 42.0934 11.0711 41.9214 10.8452 41.8068C10.7322 41.6348 10.5627 41.4055 10.3933 41.2908C10.3368 41.2908 10.3368 41.2908 10.3368 41.2908C10.2803 41.1188 10.1673 41.0041 10.1108 40.8895C9.99788 40.7175 9.94139 40.5455 9.82842 40.3735C9.77194 40.0295 9.65897 39.6855 9.54599 39.3416C9.43302 38.8829 9.37654 38.4243 9.32005 38.023C9.48951 38.9403 9.26357 37.9083 9.26357 37.507C9.09411 35.5004 9.1506 33.4365 9.09411 31.43C9.09411 26.9009 9.20708 22.4291 9.43302 17.9C9.60248 15.3202 9.77194 12.7976 9.99788 10.2178C10.1108 8.95651 10.1108 7.75257 10.1108 6.49131C10.1108 4.54207 10.2238 2.42085 8.64223 1.10226C7.17362 -0.101677 5.705 -0.330999 4.01045 0.471625C2.31589 1.33158 1.86401 3.16615 1.46861 5.00072C1.1297 6.60597 0.847278 8.26854 0.734307 9.93112C0.508367 12.511 0.338911 15.0908 0.225941 17.6707C0 22.9451 -0.0564852 28.1622 0.0564852 33.4365C0.11297 38.4816 0.451882 43.584 3.67154 47.6545C6.66525 51.3809 12.0878 52.8715 16.4372 51.4956C18.866 50.693 21.069 49.2024 22.7635 47.2531ZM18.3577 39.7429C18.4707 39.6282 18.6966 39.3416 18.3577 39.7429V39.7429ZM10.6192 41.5774C10.6192 41.5774 10.7322 41.6921 10.7887 41.7494C10.6757 41.6921 10.5627 41.6348 10.6192 41.5774ZM11.523 42.2081C11.41 42.1507 11.297 42.0934 11.297 42.0934C11.297 42.0934 11.41 42.1507 11.523 42.2081ZM11.6359 42.2654C11.6924 42.3227 11.6924 42.3227 11.6359 42.2654V42.2654ZM12.7092 42.4947C12.1443 42.4947 12.4267 42.4947 12.7092 42.4947V42.4947ZM12.7656 42.4947C12.8786 42.5521 12.9351 42.5521 12.9351 42.5521C12.9351 42.5521 12.8786 42.5521 12.7656 42.4947Z" fill="url(#paint0_linear_1070_156)"/>
<path d="M48.3909 28.9068C47.1258 30.2246 46.2058 32.3445 44.4807 33.1466C44.4807 33.2039 43.6757 33.3757 43.9057 33.3757C43.7332 33.3757 43.5607 33.3757 43.3882 33.3757C43.4457 33.3757 43.1582 33.2612 43.1007 33.3185C43.0432 33.2612 42.9282 33.2039 42.9282 33.1466C42.8707 33.1466 42.8707 33.0893 42.8707 33.0893C42.7557 32.8601 42.6982 32.6309 42.6407 32.4018C42.6407 32.3445 42.6407 32.2872 42.6407 32.2872C42.5832 32.058 42.5832 31.8861 42.5832 31.6569C42.5257 31.1413 42.5257 30.6829 42.5832 30.2246C42.5832 28.9641 42.6407 27.7037 42.6982 26.4432C43.2157 23.6358 43.2732 20.7712 42.9282 17.9638C42.6982 16.3023 41.6057 14.8699 39.6506 14.8699C37.868 14.8699 36.4305 16.3023 36.373 17.9638C36.3155 20.3701 36.258 22.8337 36.2005 25.2401C36.143 25.5265 36.0855 25.8703 36.028 26.1568C35.798 27.0162 35.6255 28.162 35.1655 28.9641C35.108 29.0787 34.7629 29.4225 34.6479 29.5944C34.5904 29.709 33.9579 30.4538 34.0154 30.4538C33.3829 31.084 32.7504 31.6569 32.0604 32.1726C31.7728 32.459 31.4853 32.6882 31.1978 32.9747C31.0253 33.0893 30.8528 33.1466 30.6803 33.2612C30.6228 33.3185 30.5078 33.3185 30.4503 33.3757C30.3928 33.3757 30.2778 33.433 30.1628 33.433C30.1053 33.4903 29.9903 33.4903 29.8753 33.5476C29.8178 33.5476 29.7603 33.5476 29.7028 33.5476C29.6453 33.5476 29.5878 33.5476 29.5303 33.5476C29.4728 33.5476 29.4153 33.4903 29.2428 33.4903C29.1853 33.433 29.1278 33.3757 29.0703 33.3757C29.0128 33.3185 29.0128 33.3185 28.9553 33.3185C28.8403 33.2039 28.7253 33.0893 28.6102 33.032C28.5527 32.9747 28.5527 32.9174 28.4952 32.9174C28.4952 32.8601 28.4952 32.8601 28.4377 32.8028C28.2652 32.5163 28.0927 32.2872 27.9202 31.9434C27.9202 31.9434 27.8052 31.6569 27.7477 31.4278C27.6327 31.1413 27.5752 30.9121 27.5177 30.6257C27.5177 30.5684 27.5177 30.5111 27.5177 30.4538C27.5177 30.5111 27.5177 30.3965 27.4602 30.0527C27.4602 29.7663 27.4602 29.4798 27.4602 29.1933C27.4027 27.2453 27.7477 25.2974 27.8627 23.4067C27.9202 22.2035 28.0352 21.0003 27.8052 19.8545C27.5752 18.7659 27.0577 17.7346 26.5977 16.7606C25.9077 15.4429 24.0101 14.8699 22.6301 15.271C21.0775 15.672 20.1 16.9898 20.0425 18.4221C20.0425 18.5367 19.985 19.2242 20.0425 19.1669C19.9275 19.7399 19.8125 20.3128 19.755 20.8858C19.6975 21.8597 19.6975 22.8337 19.5825 23.8077C19.3525 25.5838 19.0075 27.4172 19.0075 29.1933C18.8925 32.9174 20.1 36.9852 23.2051 39.4489C26.7702 42.2562 31.5428 42.5427 35.568 40.3656C36.8905 39.6207 37.9255 38.7613 38.7306 37.7301C41.0881 39.678 44.6532 39.5634 47.2408 37.9019C49.9434 36.1258 51.381 33.0893 51.4385 30.11C51.496 28.6777 49.4259 27.8183 48.3909 28.9068Z" fill="url(#paint1_linear_1070_156)"/>
<path d="M70.224 32.8028C69.189 35.4383 66.0839 37.0425 63.3813 36.6988C62.7488 36.6415 61.8288 36.355 61.3687 36.1258C60.5637 35.7821 59.7012 35.2091 59.2987 34.8081C59.0112 34.5789 58.7237 34.2924 58.4937 34.006C58.3211 33.8914 58.2061 33.7195 58.0911 33.5476C58.0336 33.4903 57.9761 33.433 57.9186 33.3185C57.6886 32.9747 57.4586 32.6882 57.2861 32.3445C57.1711 32.1153 57.0561 31.8861 56.9411 31.6569C56.9411 31.5996 56.9411 31.5424 56.8836 31.4278C56.7111 31.0267 56.5961 30.5684 56.4811 30.11C56.4811 29.9954 56.4236 29.8235 56.4236 29.709C56.4236 29.6517 56.4236 29.5371 56.3661 29.4798C56.3661 28.9641 56.3661 28.4485 56.4236 27.9329C56.4236 27.8183 56.5386 27.188 56.4811 27.188C56.5386 26.9016 56.6536 26.6724 56.7111 26.3859C56.6536 26.5578 56.9411 25.813 57.0561 25.6984C57.1711 25.4692 57.7461 24.7817 57.4586 25.0682C57.6311 24.8963 57.8611 24.6671 58.0336 24.4952C57.9186 24.6671 58.4937 24.2088 58.5512 24.1515C58.7237 24.0942 58.7812 24.0369 58.8387 24.0369C58.9537 23.9796 59.0687 23.9223 59.1837 23.9223C59.2987 23.865 59.4137 23.865 59.4712 23.865H59.5287C59.7012 23.865 60.2187 23.9223 60.2762 23.9223C60.5637 24.0369 60.7937 24.0942 60.7937 24.0369C60.9662 24.1515 61.1387 24.2661 61.2537 24.3234C61.3112 24.3234 61.3112 24.3807 61.3112 24.3807C61.4262 24.4952 61.5412 24.6098 61.6562 24.7244H61.7138C61.7713 24.839 61.8863 25.0109 61.9438 25.1828C62.9788 27.0162 65.6814 27.761 67.5214 26.6151C69.419 25.4119 70.0515 23.0629 68.959 21.0576C66.7739 16.9325 61.8288 14.9845 57.3436 15.9012C52.9735 16.8179 49.3509 20.8285 48.4308 25.0682C46.5333 34.2924 55.5611 43.4021 64.8188 41.9125C69.0165 41.225 72.8116 37.9592 73.6741 33.7195C74.1341 31.4278 71.0865 30.6829 70.224 32.8028Z" fill="url(#paint2_linear_1070_156)"/>
<path d="M104.881 29.7663C104.536 28.9068 103.731 28.6777 102.926 28.7923C101.374 28.9641 99.8788 29.2506 98.4412 29.5944C98.3837 29.5944 98.3262 29.6517 98.2687 29.6517C97.9237 24.438 97.1187 19.2815 95.9686 14.1251C95.4511 12.0052 92.9785 10.5156 90.851 11.1458C89.3559 11.6042 88.3209 12.7501 87.9184 14.0678C87.2284 14.7553 86.8259 15.672 86.8259 16.7033C86.8259 17.5627 86.7683 18.3648 86.7108 19.2242C86.6534 19.2815 86.6533 19.3388 86.6533 19.4534C86.6533 19.3961 86.6534 19.4534 86.5958 19.6253C86.5383 19.9691 86.4808 20.3128 86.4233 20.6566C86.1933 21.4587 85.9633 22.2608 85.6758 23.0056C85.5033 23.4067 85.3883 23.7504 84.9858 24.3807C84.6408 25.1255 84.1808 25.7557 83.7208 26.4432C83.6633 26.5005 83.6058 26.5578 83.6058 26.6151C83.6058 26.6151 83.6058 26.6151 83.4907 26.7297C83.3182 26.9589 83.0882 27.188 82.8582 27.4172C82.6282 27.5891 82.3982 27.8183 82.1682 27.9902C82.2832 27.9329 81.5932 28.3339 81.5932 28.3912C81.4782 28.4485 81.3632 28.5058 81.2482 28.5631C81.5357 28.4485 81.5357 28.4485 81.3057 28.5058C81.2482 28.5631 80.9607 28.6204 80.7307 28.6777C80.6157 28.6777 80.2132 28.735 80.1556 28.735C80.0406 28.735 79.9831 28.735 79.9256 28.735C79.9256 28.735 79.8681 28.735 79.8106 28.735C79.7531 28.735 79.5806 28.6204 79.4081 28.5631C79.3506 28.5058 79.2356 28.4485 79.1206 28.3912C79.1206 28.3339 79.0056 28.2766 79.0056 28.2193C78.8906 28.0474 78.7756 27.8183 78.7756 27.8183C78.7181 27.5318 78.6031 27.2453 78.5456 26.9589C78.5456 26.9016 78.4881 26.5005 78.4881 26.3286C78.4306 26.1568 78.4306 25.813 78.4306 25.7557C78.3731 25.3546 78.3731 24.8963 78.3156 24.438C78.2581 23.5785 78.2006 22.7191 78.1431 21.8024C78.0281 19.8545 77.6256 17.9065 77.3381 15.9585C77.1081 14.3543 75.2105 13.323 73.7154 13.4949C72.1054 13.7241 70.8404 15.0418 70.7829 16.7033C70.7254 18.9378 70.7254 21.1722 70.8404 23.4067C70.9554 25.4119 70.9554 27.5891 71.5304 29.5371C72.6804 33.8341 76.5905 36.6415 81.0757 36.1831C84.9283 35.8394 87.9184 33.6622 90.161 30.6257C90.276 31.7715 90.391 32.8601 90.506 34.1206C89.1834 35.1518 87.9184 36.2404 86.7108 37.4436C84.5833 39.678 82.6282 42.1417 81.0757 44.8345C79.4656 47.5845 78.0281 50.5638 77.6256 53.715C77.2231 56.9807 78.4881 60.361 81.4782 61.9079C84.4683 63.5122 88.2059 63.3403 91.0235 61.4496C97.6937 56.9807 98.0962 48.1575 98.3837 40.8812C98.4987 38.9905 98.4987 37.0425 98.4987 35.1518C99.0737 34.8654 99.5912 34.5216 100.109 34.1779C101.431 33.3185 102.754 32.5736 104.134 31.8861C104.939 31.4851 105.169 30.5111 104.881 29.7663ZM90.851 45.6939C90.7935 48.5012 90.851 51.8816 89.7584 54.3452C88.9534 56.1786 87.3434 57.8401 85.3308 57.9547C83.0882 58.012 82.0532 56.2359 82.2257 54.1733C82.3982 51.7097 83.7208 49.4179 84.9858 47.4127C86.3083 45.2355 87.8609 43.2875 89.6434 41.5114C90.046 41.1104 90.4485 40.7093 90.851 40.3656C90.9085 42.1417 90.9085 43.9178 90.851 45.6939Z" fill="url(#paint3_linear_1070_156)"/>
<defs>
<linearGradient id="paint0_linear_1070_156" x1="13.8094" y1="5.28933" x2="13.8094" y2="63.3546" gradientUnits="userSpaceOnUse">
<stop stop-color="#8C34FB"/>
<stop offset="1" stop-color="#BD56DC"/>
</linearGradient>
<linearGradient id="paint1_linear_1070_156" x1="61.6826" y1="-5.41003" x2="61.6826" y2="52.6181" gradientUnits="userSpaceOnUse">
<stop stop-color="#8C34FB"/>
<stop offset="1" stop-color="#BD56DC"/>
</linearGradient>
<linearGradient id="paint2_linear_1070_156" x1="61.6826" y1="-5.41003" x2="61.6826" y2="52.6181" gradientUnits="userSpaceOnUse">
<stop stop-color="#8C34FB"/>
<stop offset="1" stop-color="#BD56DC"/>
</linearGradient>
<linearGradient id="paint3_linear_1070_156" x1="61.6826" y1="-5.41003" x2="61.6826" y2="52.6181" gradientUnits="userSpaceOnUse">
<stop stop-color="#8C34FB"/>
<stop offset="1" stop-color="#BD56DC"/>
</linearGradient>
</defs>
</svg>
