<svg xmlns="http://www.w3.org/2000/svg" width="74" height="24" fill="none"><path fill="#6366F1" d="M4.276 10.59v7.916H0V4.626h4.066v2.549h.15c.296-.85.804-1.515 1.52-1.997.718-.488 1.572-.732 2.563-.732.945 0 1.764.22 2.458.66.7.433 1.241 1.042 1.626 1.825.39.777.583 1.686.577 2.729v8.846H8.684v-7.979c.006-.771-.184-1.373-.569-1.807-.379-.434-.906-.65-1.582-.65a2.28 2.28 0 0 0-1.19.307 2.01 2.01 0 0 0-.787.858c-.18.373-.274.825-.28 1.355Zm19.506 1.925V4.627h4.267v13.879h-4.075v-2.584h-.14a4.02 4.02 0 0 1-1.521 2.024c-.712.494-1.572.74-2.58.74-.916 0-1.72-.216-2.414-.65-.694-.434-1.233-1.039-1.618-1.816-.385-.783-.58-1.699-.586-2.747V4.627h4.277v7.978c.005.753.198 1.347.577 1.78.379.434.895.651 1.548.651.425 0 .807-.096 1.145-.289.344-.199.615-.485.814-.858.204-.38.306-.838.306-1.374Zm11.403 6.19a4.83 4.83 0 0 1-2.703-.795c-.81-.53-1.457-1.326-1.941-2.386s-.726-2.376-.726-3.949c0-1.632.25-2.976.752-4.03.502-1.054 1.157-1.834 1.968-2.34a4.907 4.907 0 0 1 2.632-.76c.706 0 1.309.127 1.81.38.502.247.916.567 1.242.958.327.392.574.798.743 1.22h.088V0h4.276v18.506h-4.232v-2.25h-.132c-.18.428-.437.828-.77 1.202a3.68 3.68 0 0 1-1.25.903c-.495.23-1.081.344-1.757.344Zm1.486-3.443c.52 0 .962-.15 1.33-.452.367-.307.65-.738.848-1.292.198-.554.297-1.205.297-1.952 0-.759-.099-1.412-.297-1.96-.193-.549-.475-.97-.848-1.266-.368-.295-.81-.442-1.33-.442-.53 0-.98.15-1.346.451-.368.302-.648.726-.84 1.274-.187.549-.28 1.196-.28 1.943 0 .747.096 1.398.289 1.952.192.554.47.985.83 1.292.368.301.817.452 1.347.452ZM51.8 24c-1.277 0-2.37-.184-3.28-.551-.91-.368-1.623-.87-2.142-1.51a4.246 4.246 0 0 1-.936-2.168l4.049-.235c.076.283.216.53.42.741.21.211.48.374.813.488a3.73 3.73 0 0 0 1.19.172c.716 0 1.308-.181 1.775-.542.472-.356.708-.98.708-1.87v-2.44h-.149a3.29 3.29 0 0 1-.77 1.147 3.629 3.629 0 0 1-1.285.795c-.507.193-1.09.29-1.749.29-.98 0-1.877-.236-2.693-.706-.81-.476-1.46-1.21-1.95-2.204-.484-1-.726-2.287-.726-3.859 0-1.62.25-2.955.752-4.003.501-1.054 1.157-1.834 1.967-2.34a4.907 4.907 0 0 1 2.633-.76c.705 0 1.309.127 1.81.38a3.72 3.72 0 0 1 1.25.958c.327.392.575.798.744 1.22h.122V4.627h4.26V18.56c0 1.175-.287 2.166-.858 2.973-.571.807-1.37 1.419-2.396 1.834-1.026.422-2.213.633-3.56.633Zm.13-8.9c.52 0 .963-.142 1.33-.425.367-.283.65-.69.848-1.22.199-.53.298-1.166.298-1.907 0-.753-.1-1.4-.298-1.943-.192-.548-.475-.97-.848-1.265-.367-.295-.81-.442-1.33-.442-.53 0-.979.15-1.346.451-.367.302-.647.726-.84 1.274-.186.543-.28 1.184-.28 1.925 0 .741.097 1.377.29 1.907.192.53.469.937.83 1.22.367.283.816.424 1.347.424Zm15.195 3.668c-1.405 0-2.618-.286-3.638-.858a5.85 5.85 0 0 1-2.344-2.467c-.542-1.072-.813-2.347-.813-3.822 0-1.434.274-2.687.822-3.76.548-1.078 1.32-1.915 2.317-2.512.997-.602 2.172-.903 3.525-.903.956 0 1.83.153 2.623.46a5.622 5.622 0 0 1 2.055 1.365c.578.602 1.026 1.346 1.347 2.232.32.88.481 1.889.481 3.027v1.103H61.825v-2.567h7.696a2.552 2.552 0 0 0-.324-1.256 2.232 2.232 0 0 0-.865-.858 2.436 2.436 0 0 0-1.25-.316c-.479 0-.907.111-1.286.334-.38.217-.68.515-.901.894a2.578 2.578 0 0 0-.35 1.275v2.611c0 .566.108 1.063.324 1.491.215.422.521.75.918.985.396.235.868.352 1.416.352.38 0 .724-.054 1.032-.162a2.19 2.19 0 0 0 .796-.48c.222-.21.388-.47.499-.776l3.926.117a5.094 5.094 0 0 1-1.075 2.377c-.548.668-1.268 1.19-2.16 1.563-.892.367-1.924.551-3.096.551Z"/></svg>