<svg width="174" height="47" viewBox="0 0 174 47" fill="none" xmlns="http://www.w3.org/2000/svg">
<g clip-path="url(#clip0_9263_245350)">
<path d="M0.666667 15.2979C0.666667 11.2478 3.94991 7.96452 8 7.96452H24C28.0501 7.96452 31.3333 11.2478 31.3333 15.2979V31.2979C31.3333 35.3479 28.0501 38.6312 24 38.6312H8C3.94991 38.6312 0.666667 35.3479 0.666667 31.2979V15.2979Z" stroke="white" stroke-width="1.33333"/>
<path d="M13.1981 22.3104C13.1038 21.991 12.7684 21.8085 12.449 21.9027L9.92375 22.6482C9.60432 22.7425 9.42187 23.0778 9.51617 23.3973C9.61042 23.7166 9.9458 23.8992 10.2652 23.8049L12.7904 23.0594C13.1098 22.9651 13.2923 22.6297 13.1981 22.3104Z" fill="white"/>
<path d="M12.789 22.9323C13.1157 22.8679 13.3284 22.5508 13.2641 22.2241L12.4889 18.2884C12.4246 17.9616 12.1075 17.7489 11.7807 17.8132C11.454 17.8776 11.2413 18.1947 11.3057 18.5214L12.0808 22.4572C12.1452 22.7839 12.4623 22.9966 12.789 22.9323Z" fill="white"/>
<path d="M20.7553 22.0197C20.5763 22.1337 20.3382 22.0412 20.2832 21.8363L20.0339 20.909C19.9671 20.6604 20.2112 20.4414 20.451 20.5346L21.5102 20.9461C21.7501 21.0393 21.7823 21.3656 21.5652 21.5039L20.7553 22.0197Z" fill="white"/>
<path d="M18.1459 27.7372C18.3246 27.6229 18.5629 27.7149 18.6184 27.9197L19.2266 30.1643C19.2939 30.4127 19.0503 30.6322 18.8101 30.5395L16.243 29.5481C16.0029 29.4554 15.9701 29.1291 16.1869 28.9904L18.1459 27.7372Z" fill="white"/>
<path d="M27.0643 17.6821L18.6067 14.4107C18.2069 14.2561 17.7213 14.4712 17.567 14.8714L17.1324 15.9989C16.2171 18.3735 16.6666 21.1388 18.3577 23.7244C17.7371 23.8874 17.1463 24.0889 16.5959 24.3328C14.4843 25.2684 12.9886 26.7498 12.2695 28.6152L11.835 29.7428C11.625 30.3572 12.0841 30.7139 12.2957 30.7838L20.7534 34.0552C21.2954 34.2589 21.7088 33.8516 21.793 33.5946L22.2277 32.467C23.1429 30.0924 22.6934 27.3272 21.0024 24.7415C21.623 24.5785 22.2137 24.3771 22.7641 24.1332C24.8758 23.1975 26.3715 21.7161 27.0905 19.8507L27.5252 18.7231C27.6853 18.3074 27.478 17.8392 27.0643 17.6821ZM19.3275 25.1475C21.4394 28.0721 21.3564 30.5291 20.581 32.266L13.6238 29.5749C14.3246 27.7462 16.0615 25.7907 19.3275 25.1475ZM25.59 19.2703C25.0272 20.7304 23.8259 21.9047 22.1099 22.6651C21.4732 22.9472 20.7778 23.1648 20.029 23.32C18.3628 21.0336 17.8486 18.5986 18.6293 16.5809L18.7755 16.2015L25.7326 18.8926L25.59 19.2703Z" fill="white"/>
<path fill-rule="evenodd" clip-rule="evenodd" d="M10.4631 30.0505C7.13478 29.1341 4.6875 26.0839 4.6875 22.4666C4.6875 18.1257 8.21168 14.6016 12.5525 14.6016C13.7775 14.6016 14.9374 14.8822 15.9715 15.3827L15.8414 15.7204C15.6926 16.1063 15.58 16.5025 15.5029 16.9062C14.6227 16.4378 13.6184 16.1723 12.5525 16.1723C9.07861 16.1723 6.25824 18.9927 6.25824 22.4666C6.25824 25.3687 8.22651 27.8147 10.8997 28.5412L10.5439 29.4643C10.4579 29.7235 10.4377 29.9109 10.4631 30.0505Z" fill="white"/>
<path d="M39.755 28.7712L41.6324 26.8085C42.4857 27.7472 43.787 28.4512 45.1524 28.4512C46.4324 28.4512 47.3284 27.6619 47.3284 26.5739C47.3284 24.6539 44.555 24.4192 42.5497 23.2459C41.3764 22.5632 40.4377 21.5392 40.4377 19.8539C40.4377 17.1872 42.891 15.6512 45.3657 15.6512C46.8804 15.6512 48.2884 16.0139 49.6964 17.0592L48.203 19.1925C47.6057 18.6379 46.603 18.2112 45.6217 18.2112C44.5337 18.2112 43.3177 18.6805 43.3177 19.8325C43.3177 22.2432 50.2084 21.4965 50.2084 26.5312C50.2084 29.1765 47.8404 31.0112 45.1524 31.0112C43.147 31.0112 41.291 30.1792 39.755 28.7712ZM55.2942 30.7979H52.5209V20.4512H55.1875V21.2832C55.9982 20.5579 56.9795 20.2379 57.9822 20.2379C59.3902 20.2379 60.6489 20.8779 61.4595 21.8592C62.2915 20.9845 63.5929 20.2379 65.1289 20.2379C66.5582 20.2379 67.9235 20.8779 68.7555 21.9019C69.4169 22.7125 69.8009 23.7792 69.8009 25.3152V30.7979H67.0275V25.2085C67.0275 24.2699 66.8355 23.8005 66.5155 23.4379C66.0889 22.9685 65.4915 22.7979 64.9582 22.7979C63.7635 22.7979 62.8249 23.6299 62.4622 24.1632C62.5049 24.5045 62.5475 24.8885 62.5475 25.3152V30.7979H59.7742V25.2085C59.7742 24.2699 59.5822 23.8005 59.2622 23.4379C58.8355 22.9685 58.2382 22.7979 57.7049 22.7979C56.5315 22.7979 55.6782 23.5872 55.2942 24.0779V30.7979ZM80.005 27.1712V24.0779C79.429 23.3099 78.5117 22.7979 77.445 22.7979C75.8237 22.7979 74.7784 24.1419 74.7784 25.6352C74.7784 27.2565 75.9517 28.4512 77.509 28.4512C78.5544 28.4512 79.4717 27.9392 80.005 27.1712ZM82.7784 20.4512V30.7979H80.1117V29.9659C79.2584 30.6912 78.277 31.0112 77.2317 31.0112C75.6957 31.0112 74.245 30.3285 73.3277 29.2619C72.517 28.3232 72.005 27.0432 72.005 25.6352C72.005 22.5845 74.2664 20.2379 77.0824 20.2379C78.2557 20.2379 79.301 20.6219 80.1117 21.2832V20.4512H82.7784ZM92.6634 20.3232L92.3434 22.9045C92.1514 22.8405 91.746 22.7979 91.3407 22.7979C90.1247 22.7979 89.1647 23.6725 88.8234 24.2912V30.7979H86.05V20.4512H88.7167V21.4965C89.3354 20.7285 90.466 20.2379 91.7247 20.2379C92.13 20.2379 92.3647 20.2805 92.6634 20.3232ZM102.873 28.4512L103.299 30.7979C102.937 30.9259 102.105 31.0112 101.571 31.0112C99.9072 31.0112 98.6912 30.4565 97.9872 29.5179C97.4539 28.8139 97.2192 27.8965 97.2192 26.4245V22.7979H94.3392V20.4512H97.2192V17.5712H99.9925V20.4512H103.406V22.7979H99.9925V26.7445C99.9925 27.3845 100.099 27.7685 100.334 28.0459C100.611 28.3659 101.059 28.5579 101.742 28.5579C102.147 28.5579 102.681 28.4939 102.873 28.4512ZM116.595 30.7979V24.0779H109.128V30.7979H106.248V15.8645H109.128V21.5179H116.595V15.8645H119.475V30.7979H116.595ZM130.001 27.1712V24.0779C129.425 23.3099 128.508 22.7979 127.441 22.7979C125.82 22.7979 124.774 24.1419 124.774 25.6352C124.774 27.2565 125.948 28.4512 127.505 28.4512C128.55 28.4512 129.468 27.9392 130.001 27.1712ZM132.774 20.4512V30.7979H130.108V29.9659C129.254 30.6912 128.273 31.0112 127.228 31.0112C125.692 31.0112 124.241 30.3285 123.324 29.2619C122.513 28.3232 122.001 27.0432 122.001 25.6352C122.001 22.5845 124.262 20.2379 127.078 20.2379C128.252 20.2379 129.297 20.6219 130.108 21.2832V20.4512H132.774ZM138.819 24.0779V27.1712C139.353 27.9392 140.27 28.4512 141.315 28.4512C142.873 28.4512 144.046 27.2565 144.046 25.6352C144.046 24.1419 143.001 22.7979 141.379 22.7979C140.313 22.7979 139.395 23.3099 138.819 24.0779ZM138.713 30.7979H136.046V15.6512H138.819V21.1979C139.63 20.5579 140.611 20.2379 141.742 20.2379C144.558 20.2379 146.819 22.5845 146.819 25.6352C146.819 27.0432 146.307 28.3232 145.497 29.2619C144.579 30.3285 143.129 31.0112 141.593 31.0112C140.547 31.0112 139.566 30.6912 138.713 29.9659V30.7979ZM152.011 20.4512V30.7979H149.238V20.4512H152.011ZM148.811 16.7819C148.811 15.7792 149.622 15.0112 150.624 15.0112C151.627 15.0112 152.438 15.7792 152.438 16.7819C152.438 17.7845 151.627 18.5525 150.624 18.5525C149.622 18.5525 148.811 17.7845 148.811 16.7819ZM162.643 28.4512L163.07 30.7979C162.707 30.9259 161.875 31.0112 161.342 31.0112C159.678 31.0112 158.462 30.4565 157.758 29.5179C157.225 28.8139 156.99 27.8965 156.99 26.4245V22.7979H154.11V20.4512H156.99V17.5712H159.763V20.4512H163.177V22.7979H159.763V26.7445C159.763 27.3845 159.87 27.7685 160.105 28.0459C160.382 28.3659 160.83 28.5579 161.513 28.5579C161.918 28.5579 162.451 28.4939 162.643 28.4512ZM164.889 29.6245L166.233 27.6405C166.937 28.2805 168.025 28.6645 169.07 28.6645C169.817 28.6645 170.393 28.3019 170.393 27.7899C170.393 26.2325 165.379 26.7872 165.379 23.4592C165.379 21.4752 167.299 20.2379 169.347 20.2379C170.691 20.2379 172.163 20.7499 172.846 21.2832L171.545 23.2885C171.011 22.9045 170.307 22.5845 169.561 22.5845C168.793 22.5845 168.153 22.8832 168.153 23.4165C168.153 24.7605 173.166 24.2272 173.166 27.8112C173.166 29.7952 171.225 31.0112 169.049 31.0112C167.619 31.0112 166.105 30.5205 164.889 29.6245Z" fill="white"/>
</g>
<defs>
<clipPath id="clip0_9263_245350">
<rect width="174" height="46" fill="white" transform="translate(0 0.297852)"/>
</clipPath>
</defs>
</svg>
