<?xml version="1.0" encoding="UTF-8"?><svg id="Layer_2" xmlns="http://www.w3.org/2000/svg" viewBox="0 0 142.62 182.22"><defs><style>.cls-1{fill:#292524;}</style></defs><g id="Layer_1-2"><g><polygon class="cls-1" points="7.33 114.58 18.8 134.41 87.12 27.73 76.79 6.12 7.33 114.58"/><polygon class="cls-1" points="142.62 38.94 126.81 63.63 126.49 64.16 97.05 63.72 90.47 63.63 90.4 63.72 83.21 74.95 103.35 75.25 119.23 75.48 109.96 89.97 73.54 90.08 66.21 101.54 102.55 101.54 93.07 116.29 92.75 116.81 62.76 116.4 56.74 116.29 49.48 127.61 60.16 127.77 63.27 127.81 85.5 128.13 68.93 154.01 34.62 150.84 29.01 159.58 14.52 182.22 0 182.22 68.49 75.25 75.84 63.77 99.42 26.95 86.55 0 122.01 3.31 142.62 38.94"/></g></g></svg>