<?xml version="1.0" encoding="UTF-8"?><svg id="Layer_1" xmlns="http://www.w3.org/2000/svg" viewBox="470 406 370 88"><defs><style>.cls-1{fill:#00008b;}</style></defs><path class="cls-1" d="M582.24,452.28c-2.12-1.34-4.48-2.44-7.05-3.32-2.57-.87-5.95-1.75-10.16-2.62-4.14-.88-6.92-1.67-8.31-2.38-1.39-.72-2.09-1.86-2.09-3.45,0-1.96,.81-3.56,2.45-4.8,1.64-1.22,4.12-1.84,7.46-1.84,6.01,0,9.73,2.3,11.15,6.89h11.89c-.71-5.25-2.93-9.52-6.68-12.84-3.75-3.3-9.22-4.96-16.43-4.96-5.9,0-10.99,1.59-15.25,4.75-4.26,3.17-6.4,7.61-6.4,13.28,0,2.73,.5,5.08,1.52,7.05,1,1.98,2.5,3.59,4.46,4.84,1.96,1.26,3.96,2.24,5.98,2.95,2.02,.71,4.51,1.37,7.46,1.96,.22,.06,.46,.11,.7,.17,.25,.06,.43,.09,.57,.13,.14,.02,.34,.07,.62,.11,3.49,.77,5.93,1.35,7.3,1.72,1.37,.39,2.52,.97,3.48,1.76,.96,.8,1.44,1.85,1.44,3.16,0,2.08-.87,3.69-2.58,4.83-1.72,1.15-4.23,1.72-7.5,1.72-3.94,0-6.9-.69-8.9-2.06-2-1.36-3.4-3.52-4.21-6.47h-11.81c.71,5.57,3.11,10.21,7.17,13.9,4.07,3.69,10.01,5.53,17.83,5.53,2.57,0,5.07-.32,7.5-.98,2.43-.65,4.75-1.63,6.97-2.95,2.22-1.31,3.99-3.19,5.32-5.62,1.35-2.43,2.01-5.23,2.01-8.39,0-2.79-.45-5.17-1.35-7.14-.9-1.96-2.42-3.62-4.56-4.96Z"/><path class="cls-1" d="M633.26,441.99c-4.56-4.48-10.12-6.72-16.68-6.72s-12.1,2.24-16.63,6.72c-4.55,4.49-6.81,10.08-6.81,16.81s2.25,12.32,6.76,16.8c4.51,4.47,10.07,6.71,16.68,6.71s12.26-2.23,16.76-6.68c4.51-4.44,6.76-10.06,6.76-16.83s-2.27-12.32-6.84-16.81Zm-8.36,25.74c-2.22,2.29-4.99,3.43-8.32,3.43s-6.1-1.14-8.32-3.43c-2.22-2.3-3.32-5.28-3.32-8.93s1.1-6.65,3.32-8.94c2.22-2.3,4.99-3.44,8.32-3.44s6.1,1.14,8.32,3.44c2.21,2.29,3.32,5.27,3.32,8.94s-1.11,6.63-3.32,8.93Z"/><path class="cls-1" d="M672.03,435.27c-5.96,0-10.63,2.38-14.01,7.13v-6.14h-11.73v45.07h11.73v-23.68c0-7.48,3.38-11.23,10.16-11.23,3,0,5.16,.77,6.47,2.3,1.31,1.53,1.96,3.83,1.96,6.89v25.73h11.72v-28.27c0-5.52-1.45-9.86-4.34-13.03-2.9-3.16-6.89-4.75-11.97-4.75Z"/><path class="cls-1" d="M721.37,435.27c-5.96,0-10.63,2.38-14.02,7.13v-6.14h-11.72v45.07h11.72v-23.68c0-7.48,3.39-11.23,10.16-11.23,3,0,5.16,.77,6.47,2.3,1.31,1.53,1.96,3.83,1.96,6.89v25.73h11.73v-28.27c0-5.52-1.45-9.86-4.35-13.03-2.89-3.16-6.89-4.75-11.96-4.75Z"/><path class="cls-1" d="M783.93,442.89c-4.28-5.08-10.12-7.62-17.5-7.62-6.82,0-12.45,2.24-16.87,6.72-4.43,4.49-6.65,10.12-6.65,16.89s2.22,12.36,6.65,16.8c4.42,4.43,10.13,6.63,17.13,6.63,5.12,0,9.69-1.28,13.68-3.85,3.98-2.57,6.77-6.39,8.36-11.48h-12.13c-.77,1.75-2.05,3.13-3.85,4.15-1.8,1.01-3.86,1.52-6.16,1.52-3.16,0-5.81-.94-7.94-2.8-2.13-1.85-3.39-4.53-3.77-8.03h34.59c.59-7.53-1.25-13.85-5.54-18.93Zm-28.48,10.33c.76-2.51,2.08-4.52,3.94-6.03,1.85-1.49,4.18-2.24,6.96-2.24s5.03,.75,6.89,2.24c1.85,1.51,3.11,3.52,3.77,6.03h-21.56Z"/><path class="cls-1" d="M823.59,469.2c-4.16,1.47-7.3,2.22-9.43,2.22-4.81,0-7.21-2.71-7.21-8.12v-15.98h16.72v-11.07h-16.72v-12.3l-11.73,2.55v37.46c0,6.12,1.6,10.71,4.8,13.76,3.2,3.06,7.23,4.59,12.09,4.59,2.51,0,5.04-.37,7.58-1.1,2.54-.74,4.49-1.58,5.86-2.5l-1.96-9.51Z"/><g><polygon class="cls-1" points="477.66 460.28 482.68 468.97 512.62 422.23 508.09 412.76 477.66 460.28"/><polygon class="cls-1" points="536.93 427.14 530 437.96 529.86 438.19 516.96 438 514.08 437.96 514.05 438 510.9 442.92 519.72 443.05 526.68 443.15 522.62 449.5 506.66 449.55 503.45 454.57 519.37 454.57 515.22 461.03 515.08 461.26 501.94 461.08 499.3 461.03 496.12 465.99 500.8 466.06 502.16 466.08 511.9 466.22 504.64 477.56 489.61 476.17 487.15 480 480.8 489.92 474.44 489.92 504.45 443.05 507.67 438.02 518 421.89 512.36 410.08 527.9 411.53 536.93 427.14"/></g></svg>